<?xml version="1.0" encoding="utf-8"?>
<!-- Generator: Adobe Illustrator 27.0.0, SVG Export Plug-In . SVG Version: 6.00 Build 0)  -->
<svg version="1.1" id="图层_1" xmlns="http://www.w3.org/2000/svg" xmlns:xlink="http://www.w3.org/1999/xlink" x="0px" y="0px"
	 viewBox="0 0 1920 1080" style="enable-background:new 0 0 1920 1080;" xml:space="preserve">
<style type="text/css">
	.st0{display:none;opacity:0.44;fill:#4E9290;enable-background:new    ;}
	.st1{display:none;fill:#4E9290;}
	.st2{fill:#002046;}
	.st3{fill:#FD7C07;}
	.st4{fill:#FB7C09;}
</style>
<path class="st0" d="M522.2,326.5l-4.6,0.9c-0.1,0-0.2,0.1-0.4,0.1c-0.3,0.2-1.3,0.7-1.3,0.7l-0.7,0.4c-0.3,0.2-0.7,0.4-1.1,0.5
	c-0.4,0.2-0.7,0.4-1,0.6l-0.7,0.4c0,0-0.1,0-0.1,0.1c-0.2,0.1-0.5,0.3-0.8,0.4c-0.3,0.2-0.6,0.3-0.9,0.5c-0.1,0-0.6,0.4-0.6,0.4
	c-0.3,0.2-0.7,0.4-1,0.6c-0.2,0.1-0.5,0.3-0.8,0.5s-0.6,0.4-0.9,0.5c-0.3,0.2-1.6,1-1.6,1c-0.6,0.4-1.2,0.8-1.8,1.1
	c-0.3,0.2-0.6,0.4-0.8,0.6l-1.1,0.8c-0.4,0.3-0.9,0.6-1.3,0.9c-0.3,0.2-0.5,0.4-0.8,0.6c-0.2,0.2-1.3,1-1.3,1
	c-0.3,0.2-0.7,0.5-1,0.8c-0.3,0.2-0.5,0.4-0.7,0.6s-0.5,0.4-0.7,0.5c-0.5,0.4-1.1,0.9-1.7,1.3c-0.3,0.2-0.5,0.4-0.7,0.6
	s-0.4,0.4-0.7,0.6l-0.6,0.5c-0.3,0.3-0.7,0.6-1,0.9c-0.4,0.4-0.8,0.8-1.3,1.2l-0.4,0.4c-0.4,0.4-0.8,0.7-1.1,1.1
	c-0.3,0.3-0.5,0.6-0.8,0.9l-1,1c-0.3,0.3-0.6,0.6-1,1c-0.2,0.3-0.5,0.6-0.8,0.9l-1,1c-0.3,0.3-0.5,0.6-0.8,0.9
	c-0.4,0.5-0.8,0.9-1.1,1.3c-0.5,0.6-1,1.1-1.4,1.6c-0.2,0.3-0.5,0.6-0.7,0.9l-1,1.2c-0.2,0.3-0.5,0.6-0.7,0.9s-0.4,0.6-0.7,0.9
	l-0.9,1.1c-0.3,0.3-0.5,0.7-0.8,1.1c-0.2,0.3-0.5,0.7-0.7,1l-0.6,0.9c-0.3,0.4-0.6,0.9-0.9,1.3c-0.2,0.3-0.4,0.6-0.6,0.9
	c-0.1,0.2-0.3,0.5-0.4,0.7l-0.2,0.3c-0.3,0.4-0.6,0.9-0.9,1.3s-0.5,0.8-0.7,1.2l-0.7,1.2c-0.2,0.3-0.4,0.6-0.6,1
	c-0.2,0.3-0.3,0.6-0.5,0.9s-0.7,1.2-0.7,1.2c-0.2,0.4-0.5,0.8-0.7,1.2c-0.2,0.3-0.4,0.7-0.5,1c-0.2,0.3-1.1,2.2-1.2,2.4
	c-0.2,0.5-0.5,0.9-0.7,1.4l-0.3,0.6c-0.1,0.2-0.2,0.5-0.3,0.7s-0.2,0.5-0.4,0.8c-0.3,0.7-0.6,1.4-0.9,2.1l-0.7,1.5
	c-0.3,0.6-0.5,1.3-0.8,2l-0.2,0.5c-0.1,0.3-0.3,0.7-0.4,1c-0.2,0.5-0.4,1.1-0.6,1.6l-0.8,2.1c-0.2,0.6-0.4,1.3-0.6,2l-0.2,0.5
	c-0.1,0.4-0.2,0.8-0.4,1.1c-0.1,0.3-0.2,0.6-0.3,1c-0.1,0.4-0.2,0.7-0.3,1.1c0,0-0.4,1.4-0.5,1.7c-0.1,0.4-0.2,0.8-0.3,1.3l-0.3,1.4
	c-0.1,0.4-0.2,0.7-0.2,1.1c-0.1,0.6-0.3,1.3-0.4,1.9l-0.2,0.7c-0.1,0.4-0.2,0.8-0.2,1.2c-0.1,0.5-0.2,1.1-0.3,1.7l-0.2,0.9
	c-0.1,0.4-0.1,0.8-0.2,1.2c-0.1,0.5-0.1,0.9-0.2,1.3c0,0-0.2,1.3-0.2,1.6c0,0.4-0.1,0.7-0.1,1c0,0.4-0.1,0.8-0.1,1.2
	c0,0-0.1,1.5-0.2,1.8c0,0.3-0.1,0.6-0.1,0.9c0,0.4-0.1,0.9-0.1,1.4c0,0.4,0,0.7-0.1,1.1c0,0.2,0,0.5,0,0.8c0,0.2,0,0.5,0,0.7
	c0,1.2-0.1,2.5-0.1,4c0,14.5,2.8,28.6,8.2,41.9c0.1,0.2,0.1,0.3,0.2,0.5c1,2.3,2,4.6,3.1,6.8l-3.5,2l-0.9,0.5l-3.5,2l-0.1-0.2
	c-1.2-2.3-2.3-4.7-3.2-7.1c-0.1-0.2-0.1-0.3-0.2-0.5c-6.1-14.6-9.1-30-9.1-46c0-23.1,6.6-45.6,19-64.9c0.7-1.1,1.4-2.2,2.2-3.2
	c0-0.1,0.2-0.3,0.2-0.3l0.1-0.1c0.2-0.3,0.4-0.5,0.6-0.8c0.5-0.7,0.9-1.4,1.5-2c0.1-0.1,0.2-0.2,0.2-0.3c0.2-0.2,0.4-0.5,0.5-0.7
	l0.3-0.4c0.5-0.6,0.9-1.2,1.4-1.9l0.2-0.3c0.3-0.4,0.6-0.7,0.9-1.1c0.5-0.6,1-1.2,1.5-1.8l0.2-0.3c0.2-0.3,0.4-0.5,0.6-0.7l0.3-0.3
	c0.5-0.6,1-1.1,1.5-1.7c0.2-0.2,0.3-0.3,0.4-0.5l0.8-0.8c0.5-0.5,1-1.1,1.5-1.6c0.1-0.2,0.3-0.3,0.5-0.5c0,0,0.8-0.8,0.9-0.9
	c-33.1,21-54.5,58.2-54.5,98.3c0,7.3,0.7,14.6,2,21.7c0.2,1.1,0.5,2.3,0.7,3.4c0.5,2.3,1.1,4.6,1.7,6.9l1.2,4l-5-2.9l-1.2-0.7
	l-4.9-2.8c-0.6-2.4-1.1-4.7-1.5-7.1c-0.2-1.1-0.4-2.2-0.6-3.3c-1-6.3-1.5-12.7-1.5-19.2c0-28.5,9.9-56.5,27.8-78.6
	c9.2-11.4,20.3-21,32.8-28.5c-46.7,15.9-81.4,58.4-85.9,108.9c0,0.6-0.1,1.2-0.1,1.8c-0.2,2.2-0.3,4.5-0.3,6.8l-0.1,2.2l-3.9-2.3
	l-1-0.6l-3.9-2.3c0.1-2.3,0.2-4.7,0.5-7c0.1-0.6,0.1-1.2,0.2-1.8c3.2-30.7,16.3-58.6,38.1-80.8c3.3-3.4,6.8-6.6,10.4-9.5
	c-24,14.1-44.5,34.3-58.7,59.1c-1.2,2.1-2.4,4.2-3.5,6.3c-1.2,2.2-5.1,12.8-7,18c-0.7-1.8-1-3.7-1-5.7v-16.5c1.5-2.8,3-5.6,4.6-8.2
	c1.1-1.9,2.3-3.7,3.4-5.6c27.6-43,73.2-71.5,123.8-77.4c1.9-0.2,3.7-0.4,5.6-0.6c2.8-0.2,5.7-0.4,8.6-0.5l6.8,3.9l2.6,1.5
	L522.2,326.5z"/>
<path class="st1" d="M514.3,322c-0.4,0-0.8,0-1.2,0c-4.7,0-9.3,0.2-13.8,0.6c-55.2,4.6-103,36.2-129.7,81.6c-2.9,4.9-5.6,10-8,15.3
	v2.5c2.4-5.4,5.1-10.7,8-15.8c25.9-44.9,72.2-76.6,126.1-82.2c-27,4.6-51.9,17.6-71.5,37.5c-21.5,21.9-34.5,50-37.2,80.2
	c-0.3,3-0.4,5.9-0.5,8.9l1,0.6c0.1-3,0.2-6,0.5-8.9c5.5-60.9,53.4-110.5,113.9-118.1c4.1-0.5,8.2-0.9,12.5-1
	c-3.2,0.8-6.4,1.7-9.5,2.7c-22,7.2-41.8,20.8-56.5,38.9c-17.4,21.4-26.9,48.5-26.9,76.1c0,7.4,0.7,14.7,2,21.8
	c0.7,3.6,1.5,7.2,2.5,10.7l1.2,0.7c-1-3.5-1.9-7.1-2.5-10.7c-1.4-7.3-2.1-14.8-2.1-22.5c0-52.2,34.6-98.7,83.6-114.3
	c1.9-0.6,3.8-1.2,5.7-1.7h-0.1c0,0-0.1,0-0.1,0.1c-0.4,0.2-0.8,0.4-1.1,0.6c-0.7,0.4-1.4,0.8-2.2,1.2c-0.1,0-0.1,0.1-0.2,0.1
	c-0.2,0.1-0.5,0.3-0.7,0.4s-0.3,0.2-0.5,0.3c-0.7,0.4-1.3,0.8-2,1.2c-0.1,0.1-0.2,0.1-0.3,0.2c-0.4,0.2-0.7,0.5-1.1,0.7
	c-0.6,0.4-1.2,0.8-1.8,1.2c-0.1,0.1-0.3,0.2-0.4,0.2c-0.3,0.2-0.7,0.5-1,0.7c-0.6,0.4-1.2,0.8-1.8,1.2c-0.2,0.1-0.3,0.2-0.5,0.3
	c-0.3,0.2-0.6,0.5-0.9,0.7c-0.6,0.4-1.1,0.8-1.7,1.3c-0.2,0.1-0.4,0.3-0.5,0.4c-0.3,0.2-0.6,0.5-0.8,0.7c-0.6,0.4-1.1,0.9-1.7,1.3
	c-0.2,0.2-0.4,0.3-0.6,0.5s-0.5,0.4-0.7,0.6c-0.5,0.5-1.1,0.9-1.6,1.4c-0.2,0.2-0.4,0.4-0.7,0.6c-0.2,0.2-0.4,0.4-0.6,0.6
	c-0.5,0.5-1,1-1.6,1.4c-0.2,0.2-0.5,0.4-0.7,0.7c-0.2,0.2-0.4,0.4-0.5,0.5c-0.5,0.5-1,1-1.5,1.5c-0.2,0.2-0.5,0.5-0.8,0.8
	c-0.2,0.2-0.3,0.3-0.5,0.5c-0.5,0.5-1,1-1.5,1.6c-0.3,0.3-0.5,0.6-0.8,0.8c-0.1,0.1-0.2,0.3-0.4,0.4c-0.5,0.5-1,1.1-1.5,1.6
	c-0.3,0.3-0.6,0.6-0.8,0.9c-0.1,0.1-0.2,0.2-0.3,0.3c-0.5,0.6-1,1.2-1.4,1.7c-0.3,0.3-0.6,0.7-0.8,1c-0.1,0.1-0.1,0.2-0.2,0.3
	c-0.5,0.6-1,1.2-1.4,1.9c-0.3,0.4-0.5,0.7-0.8,1c0,0.1-0.1,0.1-0.1,0.2c-0.5,0.7-1,1.4-1.5,2.1c-0.2,0.3-0.4,0.5-0.6,0.8l-0.1,0.1
	c0,0,0,0.1-0.1,0.1c-0.7,1.1-1.5,2.2-2.2,3.2c-12,18.7-18.4,40.4-18.4,62.8c0,15.7,3.1,30.8,8.8,44.5c1,2.5,2.1,4.9,3.3,7.3l0.9-0.5
	c-1.2-2.4-2.3-4.8-3.3-7.3c-5.6-13.5-8.7-28.4-8.7-44c0-1.4,0-2.8,0.1-4.1c0-0.5,0.1-1,0.1-1.5c0-0.9,0.1-1.7,0.1-2.6
	c0-0.6,0.1-1.2,0.2-1.9c0.1-0.7,0.1-1.5,0.2-2.2s0.2-1.3,0.2-2c0.1-0.7,0.2-1.4,0.3-2.1c0.1-0.7,0.2-1.3,0.3-2
	c0.1-0.7,0.2-1.3,0.3-2c0.1-0.6,0.3-1.3,0.4-1.9c0.1-0.7,0.3-1.4,0.4-2.1c0.1-0.6,0.3-1.2,0.4-1.8c0.2-0.7,0.3-1.4,0.5-2.1
	c0.2-0.6,0.3-1.2,0.5-1.8c0.2-0.7,0.4-1.4,0.6-2.1c0.2-0.6,0.4-1.1,0.5-1.7c0.2-0.7,0.4-1.4,0.7-2.2c0.2-0.5,0.4-1,0.5-1.5
	c0.3-0.8,0.5-1.5,0.8-2.2c0.2-0.5,0.4-1,0.6-1.5c0.3-0.7,0.6-1.5,0.9-2.2c0.2-0.5,0.4-1,0.6-1.5c0.3-0.7,0.6-1.5,1-2.2
	c0.2-0.5,0.5-1,0.7-1.5c0.3-0.7,0.7-1.4,1-2.1c0.3-0.5,0.6-1.1,0.8-1.6c0.3-0.7,0.7-1.3,1-1.9c0.3-0.5,0.6-1.1,0.9-1.6
	c0.4-0.6,0.7-1.3,1.1-1.9c0.3-0.5,0.6-1.1,1-1.6c0.4-0.6,0.7-1.2,1.1-1.8c0.4-0.6,0.7-1.1,1.1-1.7c0.4-0.5,0.7-1.1,1.1-1.6
	c0.4-0.6,0.8-1.2,1.2-1.8c0.4-0.5,0.7-1,1.1-1.5c0.4-0.6,0.9-1.1,1.3-1.7c0.4-0.5,0.8-1,1.1-1.5c0.4-0.6,0.9-1.1,1.3-1.7
	c0.4-0.5,0.8-1,1.2-1.5c0.5-0.6,1-1.1,1.4-1.6s0.8-0.9,1.2-1.4c0.5-0.5,1-1,1.5-1.6c0.4-0.5,0.9-0.9,1.3-1.4c0.5-0.5,1-1,1.5-1.5
	s0.9-0.9,1.4-1.4s1.1-1,1.6-1.5c0.5-0.4,0.9-0.9,1.4-1.3c0.6-0.5,1.1-1,1.7-1.5c0.5-0.4,0.9-0.8,1.4-1.2c0.6-0.5,1.2-1,1.8-1.4
	c0.5-0.4,0.9-0.8,1.4-1.1c0.6-0.4,1.2-0.9,1.8-1.3c0.5-0.4,1-0.8,1.5-1.1c0.6-0.4,1.2-0.8,1.8-1.2c0.5-0.4,1-0.7,1.6-1.1
	s1.2-0.8,1.8-1.2c0.5-0.3,1.1-0.7,1.6-1.1c0.6-0.4,1.2-0.7,1.8-1.1c0.4-0.2,0.8-0.5,1.3-0.8c0.1-0.1,0.3-0.2,0.4-0.2
	c0.6-0.3,1.2-0.7,1.8-1c0.6-0.3,1.2-0.7,1.8-1s1.2-0.6,1.8-0.9s1.2-0.6,1.8-0.9c0.3-0.1,0.6-0.1,0.9-0.2L514.3,322z"/>
<g>
	<g>
		<g>
			<g>
				<path class="st2" d="M324.6,371.3c-54.8,10.3-191.1,44.7-287.7,145.3c-4.2,4.5-11.8,1.3-11.8-4.7v-98.4c0-5.3,2.9-10,7.4-12.6
					l219.5-126.6c2.4-1.3,4.7-1.8,7.4-1.8s5,0.8,7.4,1.8l131.6,76.1c2.6,1.6,5.8,2.1,8.9,1.6c8.2-1.6,17.1-3.2,26.6-4.5
					c2.6-0.3,3.4-3.7,1.1-5.3l-155.3-89.8c-12.4-7.1-27.6-7.1-40,0L20,378.9C7.6,386,0,399.2,0,413.4v253.5c0,2.6,0.3,5.3,0.8,7.9
					c2.6,13.4,21.8,14.2,26.1,1.1c0.3-0.5,0.3-1.1,0.5-1.3c24.2-76.1,96.9-229,298.5-299C327.7,374.2,326.7,370.8,324.6,371.3z"/>
				<path class="st2" d="M498.3,378.7l-5.3-3.2c-1.6-1.1-1.8-3.2-0.5-4.5c7.9-7.4,16.3-14.2,25.3-21.1c3.2-2.4,0.3-7.1-3.2-5.8
					c-11.1,4.2-25.3,10.5-41.9,19.5c-7.9,4.2-16.6,9.2-25.5,14.5c-90,55.5-215.8,177.7-208,420.4c0,1.6,0,3.2,0.3,4.7
					c0.5,11.3,5.5,21.8,14.2,29.5l0,0c1.8,0.3,3.7,0.3,5.5,0.3c6.8,0,13.7-1.8,20-5.3l86.3-49.8l132.9-76.9
					c12.4-7.1,20-20.3,20-34.7V412.9C518.3,398.9,510.7,385.8,498.3,378.7z M493,666.6c0,5.3-2.9,10-7.4,12.6l-111.1,64
					c-5.3,3.2-11.8-0.5-12.1-6.8c-2.4-80.5,8.2-229.3,103.4-338.5c2.9-3.4,7.9-4.2,11.8-2.1l7.6,4.5c4.5,2.6,7.4,7.4,7.4,12.6v253.8
					H493z"/>
			</g>
		</g>
		<path class="st3" d="M460.9,352.3c3.2-0.3,4.2,4.2,1.3,5.5c0,0,0,0-0.3,0c-9.5,4.2-19,8.7-27.9,13.2
			c-191.4,98.7-237.7,288-248.2,397.2c-0.3,3.4-0.5,6.6-0.8,10c-0.5,8.4-9.7,13.2-17.1,8.9l-91.6-52.9c-6.8-3.9-10.5-11.8-8.9-19.7
			c0.8-4.5,1.8-8.7,2.9-13.2c56.6-251.6,243.5-322.5,343.3-342.5c15.8-3.2,29.5-5,40-6.1C456.4,352.9,458.8,352.6,460.9,352.3z"/>
	</g>
	<g>
		<g>
			<g>
				<path class="st2" d="M616.7,556.1c0-14.7,1.8-29.2,5-45l46.9-234.5h143.7L766,508.7c-2.4,11.6-3.7,21.8-3.7,31.1
					c0,38.4,20.8,56.6,57.4,56.6c41.3,0,64-23.7,76.9-87.7l46.3-232.2h141.4l-48.2,240.9C1010.5,645.3,933.2,713,802.1,713
					C686.2,712.7,616.7,651.9,616.7,556.1z"/>
				<path class="st2" d="M1148.2,276.5h143.7l-62.6,315.1H1422l-22.6,111.6h-336.4L1148.2,276.5z"/>
				<path class="st2" d="M1762.9,628.7h-162.7l-42.6,74.2h-151.9l271.9-426.7h141.4L1920,703h-143.2L1762.9,628.7z M1742.8,525
					l-20.8-109l-62.6,109H1742.8z"/>
			</g>
		</g>
		<g>
			<path class="st4" d="M645.2,799.3c-4.7,0-9.2-1.1-12.9-3.2c-3.9-2.1-6.8-5-8.9-8.7c-2.1-3.7-3.2-7.9-3.2-12.6v-38.7h9.7V774
				c0,3.2,0.8,5.8,2.1,8.2c1.3,2.4,3.4,4.2,5.8,5.8c2.4,1.3,5,2.1,7.6,2.1c2.9,0,5.8-0.8,8.2-2.1c2.4-1.3,4.2-3.4,5.8-5.8
				c1.3-2.4,2.1-5.3,2.1-8.2v-37.9h9.2v38.7c0,4.7-1.1,8.9-3.2,12.6c-2.1,3.7-5.3,6.6-8.9,8.7C654.4,798.3,649.9,799.3,645.2,799.3z
				"/>
			<path class="st4" d="M684.7,798.8v-47.1h9.2v9.7l-1.6,1.1c0.5-2.1,1.8-3.9,3.4-5.8c1.8-1.8,3.7-3.2,6.1-4.2s4.7-1.6,7.4-1.6
				c3.7,0,6.6,0.8,8.9,2.1c2.4,1.3,4.2,3.4,5.3,6.3c1.3,2.9,1.8,6.6,1.8,10.8v28.7H716v-27.9c0-2.6-0.3-5-1.1-6.6s-1.8-3.2-3.4-3.9
				c-1.6-0.8-3.4-1.1-5.5-1.1c-1.8,0-3.4,0.3-5,0.8c-1.6,0.5-2.9,1.3-3.9,2.4s-1.8,2.1-2.6,3.4c-0.5,1.3-1.1,2.9-1.1,4.2v28.4h-4.5
				c-0.8,0-1.6,0-2.4,0C685.7,798.5,685.5,798.8,684.7,798.8z"/>
			<path class="st4" d="M743.9,741.4c-1.8,0-3.4-0.5-4.5-1.6s-1.6-2.4-1.6-4.2s0.5-3.2,1.6-4.2c1.1-1.1,2.6-1.6,4.5-1.6
				c1.8,0,3.4,0.5,4.5,1.6s1.6,2.4,1.6,4.2s-0.5,3.2-1.6,4.2C747.3,740.9,745.7,741.4,743.9,741.4z M739.4,798.8v-47.1h9.2v46.9
				h-9.2V798.8z"/>
			<path class="st4" d="M778.1,798.8l-19.7-46.9h10l14.2,35.3L781,788l15.3-36.3h9.5L785,798.5h-6.8V798.8z"/>
			<path class="st4" d="M834.7,799.6c-4.7,0-9.2-1.1-12.9-3.2c-3.7-2.1-6.6-5-8.7-8.4c-2.1-3.7-3.2-7.6-3.2-12.4
				c0-3.7,0.5-7.1,1.8-10c1.3-3.2,2.9-5.8,5-7.9c2.1-2.1,4.7-3.9,7.6-5.3c2.9-1.3,6.1-1.8,9.7-1.8c3.2,0,5.8,0.5,8.4,1.8
				c2.6,1.3,5,2.6,6.8,4.7c1.8,2.1,3.4,4.5,4.5,7.1c1.1,2.9,1.6,5.8,1.6,9.2v3.9h-38.4l-2.4-7.4h32.4l-1.3,1.6v-2.1
				c-0.3-1.8-0.8-3.7-1.8-5.3s-2.6-2.9-4.2-3.7c-1.8-0.8-3.7-1.3-5.5-1.3c-3.2,0-6.1,0.5-8.2,1.8c-2.1,1.3-3.9,2.9-5,5.3
				c-1.1,2.4-1.6,5.3-1.6,8.7c0,3.2,0.8,6.1,2.1,8.4c1.3,2.4,3.4,4.2,5.8,5.5c2.6,1.3,5.5,1.8,8.7,1.8c2.4,0,4.5-0.3,6.6-1.1
				c2.1-0.8,4.2-2.1,6.6-4.2l4.7,6.6c-1.3,1.3-3.2,2.6-5.3,3.7c-2.1,1.1-4.2,1.8-6.6,2.6C839.2,799.3,836.8,799.6,834.7,799.6z"/>
			<path class="st4" d="M865.2,798.8v-47.1h9.2v14.7l-0.8-3.7c0.5-2.4,1.8-4.2,3.4-6.1c1.6-1.8,3.4-3.4,5.5-4.5
				c2.1-1.1,4.2-1.6,6.3-1.6c1.1,0,2.1,0,2.9,0.3c1.1,0.3,1.6,0.3,2.1,0.5l-2.4,10c-0.8-0.3-1.6-0.5-2.4-0.8
				c-0.8-0.3-1.8-0.3-2.6-0.3c-1.6,0-3.2,0.3-4.7,1.1c-1.6,0.5-2.6,1.6-3.9,2.6c-1.1,1.1-2.1,2.4-2.6,3.9s-1.1,3.2-1.1,4.7v26.1
				H865.2z"/>
			<path class="st4" d="M916.8,799.6c-3.9,0-7.4-0.8-10.5-2.1c-3.2-1.3-5.8-3.4-7.9-6.1l6.3-5.3c1.8,2.1,3.7,3.7,5.8,4.5
				c2.1,1.1,4.5,1.3,7.1,1.3c1.1,0,2.1-0.3,2.9-0.5c1.1-0.3,1.8-0.8,2.4-1.3c0.8-0.5,1.3-1.1,1.6-1.8c0.3-0.8,0.5-1.6,0.5-2.4
				c0-1.6-0.5-2.9-1.6-3.7c-0.5-0.5-1.6-0.8-2.9-1.3c-1.3-0.5-2.9-1.1-5-1.6c-3.4-0.8-6.3-1.8-8.4-3.2c-2.1-1.1-3.9-2.4-5-3.9
				c-0.8-1.1-1.6-2.4-1.8-3.7c-0.5-1.3-0.5-2.9-0.5-4.5c0-1.8,0.5-3.7,1.3-5.5c0.8-1.6,2.1-3.2,3.7-4.2c1.6-1.3,3.4-2.1,5.3-2.9
				c2.1-0.5,4.2-1.1,6.6-1.1c2.1,0,4.5,0.3,6.6,0.8c2.1,0.5,4.2,1.6,6.1,2.6c1.8,1.1,3.4,2.4,4.7,3.9l-5.3,5.8
				c-1.1-1.1-2.4-2.1-3.7-2.9c-1.3-0.8-2.6-1.6-3.9-2.1c-1.3-0.5-2.6-0.8-3.7-0.8c-1.3,0-2.4,0-3.4,0.3c-1.1,0.3-1.8,0.5-2.6,1.1
				c-0.8,0.5-1.3,1.1-1.6,1.8c-0.3,0.8-0.5,1.6-0.5,2.4c0,0.8,0.3,1.6,0.5,2.1c0.3,0.8,0.8,1.3,1.3,1.8s1.6,1.1,2.9,1.6
				s2.9,1.1,5,1.6c2.9,0.8,5.5,1.6,7.4,2.6c1.8,1.1,3.4,2.1,4.7,3.2c1.3,1.1,2.1,2.4,2.6,3.9s0.8,3.2,0.8,5c0,2.6-0.8,5-2.4,7.1
				c-1.6,2.1-3.7,3.7-6.1,5C922.9,799.1,920,799.6,916.8,799.6z"/>
			<path class="st4" d="M966.1,799.6c-4.7,0-9.2-1.1-12.9-3.2c-3.7-2.1-6.6-5-8.7-8.4c-2.1-3.7-3.2-7.6-3.2-12.4
				c0-3.7,0.5-7.1,1.8-10c1.3-3.2,2.9-5.8,5-7.9c2.1-2.1,4.7-3.9,7.6-5.3c2.9-1.3,6.1-1.8,9.7-1.8c3.2,0,5.8,0.5,8.4,1.8
				c2.6,1.1,5,2.6,6.8,4.7c1.8,2.1,3.4,4.5,4.5,7.1s1.6,5.8,1.6,9.2v3.9h-38.4l-2.1-7.4h32.4l-1.3,1.6v-2.1
				c-0.3-1.8-0.8-3.7-1.8-5.3s-2.6-2.9-4.2-3.7c-1.8-0.8-3.7-1.3-5.5-1.3c-3.2,0-6.1,0.5-8.2,1.8c-2.1,1.3-3.9,2.9-5,5.3
				c-1.1,2.4-1.6,5.3-1.6,8.7c0,3.2,0.8,6.1,2.1,8.4c1.3,2.4,3.4,4.2,5.8,5.5c2.6,1.3,5.5,1.8,8.7,1.8c2.4,0,4.5-0.3,6.6-1.1
				c2.1-0.8,4.2-2.1,6.6-4.2l4.7,6.6c-1.3,1.3-3.2,2.6-5.3,3.7c-2.1,1.1-4.2,1.8-6.6,2.6C970.5,799.3,968.2,799.6,966.1,799.6z"/>
			<path class="st4" d="M1024,798.8v-62.6h9.7v53.4h29.5v9.2H1024z"/>
			<path class="st4" d="M1094.5,799.6c-4.5,0-8.7-1.1-12.4-3.2c-3.7-2.1-6.6-5-8.4-8.7c-2.1-3.7-3.2-7.9-3.2-12.6s1.1-8.9,3.2-12.6
				c2.1-3.7,5-6.6,8.4-8.7c3.7-2.1,7.6-3.2,12.4-3.2c4.5,0,8.7,1.1,12.1,3.2c3.7,2.1,6.6,5,8.4,8.7c1.8,3.7,3.2,7.9,3.2,12.6
				s-1.1,8.9-3.2,12.6c-2.1,3.7-5,6.6-8.4,8.7C1103.2,798.5,1099,799.6,1094.5,799.6z M1094.5,791.2c2.9,0,5.3-0.8,7.6-2.1
				c2.1-1.3,3.9-3.4,5.3-5.8c1.3-2.4,1.8-5.3,1.8-8.2c0-3.2-0.5-5.8-1.8-8.2c-1.3-2.4-2.9-4.2-5.3-5.8c-2.1-1.3-4.7-2.1-7.6-2.1
				c-2.9,0-5.3,0.8-7.6,2.1c-2.4,1.3-3.9,3.4-5.3,5.8c-1.3,2.4-1.8,5.3-1.8,8.2c0,3.2,0.5,5.8,1.8,8.2c1.3,2.4,2.9,4.2,5.3,5.8
				C1089.2,790.6,1091.6,791.2,1094.5,791.2z"/>
			<path class="st4" d="M1149.5,819.3c-3.4,0-6.6-0.5-10-1.6s-6.1-2.4-7.9-3.9l3.4-7.1c1.3,0.8,2.6,1.6,4.2,2.4
				c1.6,0.8,3.4,1.3,5,1.6c1.8,0.3,3.4,0.5,5.3,0.5c3.2,0,6.1-0.5,8.2-1.6c2.1-1.1,3.9-2.6,5-4.7c1.1-2.1,1.6-4.7,1.6-7.9V788
				l1.1,0.5c-0.3,1.8-1.3,3.7-2.9,5.3s-3.7,3.2-6.1,4.2c-2.4,1.1-5,1.6-7.6,1.6c-4.5,0-8.4-1.1-11.8-3.2c-3.4-2.1-6.3-5-8.2-8.7
				c-2.1-3.7-3.2-7.9-3.2-12.6s1.1-8.9,2.9-12.6c2.1-3.7,4.7-6.6,8.2-8.7c3.4-2.1,7.4-3.2,11.8-3.2c1.8,0,3.4,0.3,5.3,0.8
				c1.6,0.5,3.2,1.1,4.7,1.8c1.3,0.8,2.6,1.6,3.9,2.6c1.1,1.1,2.1,1.8,2.9,3.2c0.8,1.1,1.1,2.1,1.3,3.2l-1.8,0.8v-11.3h9.2v44.2
				c0,3.7-0.5,7.1-1.6,10c-1.1,2.9-2.6,5.3-4.7,7.4c-2.1,2.1-4.7,3.4-7.6,4.5S1153.2,819.3,1149.5,819.3z M1149.8,791.2
				c2.9,0,5.5-0.8,7.9-2.1c2.4-1.3,3.9-3.2,5.3-5.5c1.3-2.4,1.8-5,1.8-8.2c0-3.2-0.5-5.8-1.8-8.2c-1.3-2.4-3.2-4.2-5.3-5.8
				c-2.1-1.3-4.7-2.1-7.6-2.1s-5.5,0.8-7.6,2.1c-2.1,1.3-3.9,3.4-5.3,5.8c-1.3,2.4-1.8,5.3-1.8,8.2c0,2.9,0.5,5.8,1.8,8.2
				c1.3,2.4,3.2,4.2,5.3,5.8C1144.3,790.4,1146.9,791.2,1149.8,791.2z"/>
			<path class="st4" d="M1192.4,741.4c-1.8,0-3.4-0.5-4.5-1.6c-1.1-1.1-1.6-2.4-1.6-4.2s0.5-3.2,1.6-4.2s2.6-1.6,4.5-1.6
				c1.8,0,3.4,0.5,4.5,1.6c1.1,1.1,1.6,2.4,1.6,4.2s-0.5,3.2-1.6,4.2C1195.9,740.9,1194.3,741.4,1192.4,741.4z M1188,798.8v-47.1
				h9.2v46.9h-9.2V798.8z"/>
			<path class="st4" d="M1226.9,799.6c-3.9,0-7.4-0.8-10.5-2.1c-3.2-1.3-5.8-3.4-7.9-6.1l6.3-5.3c1.8,2.1,3.7,3.7,5.8,4.5
				c2.1,1.1,4.5,1.3,7.1,1.3c1.1,0,2.1-0.3,2.9-0.5c1.1-0.3,1.8-0.8,2.4-1.3c0.8-0.5,1.3-1.1,1.6-1.8c0.3-0.8,0.5-1.6,0.5-2.4
				c0-1.6-0.5-2.9-1.6-3.7c-0.5-0.5-1.6-0.8-2.9-1.3s-2.9-1.1-5-1.6c-3.4-0.8-6.3-1.8-8.4-3.2c-2.1-1.1-3.9-2.4-5-3.9
				c-0.8-1.1-1.6-2.4-1.8-3.7c-0.5-1.3-0.5-2.9-0.5-4.5c0-1.8,0.5-3.7,1.3-5.5c0.8-1.6,2.1-3.2,3.7-4.2c1.6-1.3,3.4-2.1,5.3-2.9
				c2.1-0.5,4.2-1.1,6.6-1.1c2.1,0,4.5,0.3,6.6,0.8s4.2,1.6,6.1,2.6c1.8,1.1,3.4,2.4,4.7,3.9l-5.3,5.8c-1.1-1.1-2.4-2.1-3.7-2.9
				c-1.3-0.8-2.6-1.6-3.9-2.1c-1.3-0.5-2.6-0.8-3.7-0.8c-1.3,0-2.4,0-3.4,0.3s-1.8,0.5-2.6,1.1c-0.8,0.5-1.3,1.1-1.6,1.8
				s-0.5,1.6-0.5,2.4c0,0.8,0.3,1.6,0.5,2.1c0.3,0.8,0.8,1.3,1.3,1.8c0.5,0.5,1.6,1.1,2.9,1.6s2.9,1.1,5,1.6
				c2.9,0.8,5.5,1.6,7.4,2.6c1.8,1.1,3.4,2.1,4.7,3.2c1.3,1.1,2.1,2.4,2.6,3.9c0.5,1.6,0.8,3.2,0.8,5c0,2.6-0.8,5-2.4,7.1
				c-1.6,2.1-3.7,3.7-6.1,5S1230.1,799.6,1226.9,799.6z"/>
			<path class="st4" d="M1250.3,760.6v-8.9h30v8.9H1250.3z M1260.1,798.8v-59h9.2v59H1260.1z"/>
			<path class="st4" d="M1294.6,741.4c-1.8,0-3.4-0.5-4.5-1.6s-1.6-2.4-1.6-4.2s0.5-3.2,1.6-4.2s2.6-1.6,4.5-1.6
				c1.8,0,3.4,0.5,4.5,1.6c1.1,1.1,1.6,2.4,1.6,4.2s-0.5,3.2-1.6,4.2S1296.4,741.4,1294.6,741.4z M1290.1,798.8v-47.1h9.2v46.9h-9.2
				V798.8z"/>
			<path class="st4" d="M1333.5,799.6c-4.5,0-8.2-1.1-11.6-3.2c-3.4-2.1-6.1-5-8.2-8.7c-2.1-3.7-2.9-7.9-2.9-12.4
				c0-4.5,1.1-8.7,2.9-12.4c2.1-3.7,4.7-6.6,8.2-8.7c3.4-2.1,7.4-3.2,11.6-3.2c4.2,0,7.9,0.8,11.3,2.6c3.4,1.6,6.1,3.9,7.9,6.8
				l-5,6.3c-1.1-1.3-2.1-2.6-3.7-3.7c-1.6-1.1-3.2-2.1-4.7-2.6c-1.6-0.5-3.2-1.1-4.7-1.1c-2.9,0-5.5,0.8-7.6,2.1
				c-2.1,1.3-3.9,3.4-5.3,5.8c-1.3,2.4-1.8,5.3-1.8,8.2c0,2.9,0.8,5.8,2.1,8.2c1.3,2.4,3.2,4.2,5.5,5.8c2.4,1.6,4.7,2.1,7.6,2.1
				c1.6,0,3.2-0.3,4.7-0.8c1.6-0.5,2.9-1.3,4.5-2.4c1.3-1.1,2.9-2.4,3.9-3.9l5,6.3c-1.8,2.6-4.7,5-8.2,6.6
				C1340.9,798.8,1337.2,799.6,1333.5,799.6z"/>
			<path class="st4" d="M1377,799.6c-3.9,0-7.4-0.8-10.5-2.1c-3.2-1.3-5.8-3.4-7.9-6.1l6.3-5.3c1.8,2.1,3.7,3.7,5.8,4.5
				c2.1,1.1,4.5,1.3,7.1,1.3c1.1,0,2.1-0.3,2.9-0.5c1.1-0.3,1.8-0.8,2.4-1.3c0.8-0.5,1.3-1.1,1.6-1.8c0.3-0.8,0.5-1.6,0.5-2.4
				c0-1.6-0.5-2.9-1.6-3.7c-0.5-0.5-1.6-0.8-2.9-1.3s-2.9-1.1-5-1.6c-3.4-0.8-6.3-1.8-8.4-3.2c-2.1-1.1-3.9-2.4-5-3.9
				c-0.8-1.1-1.6-2.4-1.8-3.7c-0.5-1.3-0.5-2.9-0.5-4.5c0-1.8,0.5-3.7,1.3-5.5c0.8-1.6,2.1-3.2,3.7-4.2c1.6-1.3,3.4-2.1,5.3-2.9
				c2.1-0.5,4.2-1.1,6.6-1.1c2.1,0,4.5,0.3,6.6,0.8s4.2,1.6,6.1,2.6c1.8,1.1,3.4,2.4,4.7,3.9l-5.3,5.8c-1.1-1.1-2.4-2.1-3.7-2.9
				c-1.3-0.8-2.6-1.6-3.9-2.1c-1.3-0.5-2.6-0.8-3.7-0.8c-1.3,0-2.4,0-3.4,0.3s-1.8,0.5-2.6,1.1c-0.8,0.5-1.3,1.1-1.6,1.8
				s-0.5,1.6-0.5,2.4c0,0.8,0.3,1.6,0.5,2.1c0.3,0.8,0.8,1.3,1.3,1.8c0.5,0.5,1.6,1.1,2.9,1.6s2.9,1.1,5,1.6
				c2.9,0.8,5.5,1.6,7.4,2.6c1.8,1.1,3.4,2.1,4.7,3.2c1.3,1.1,2.1,2.4,2.6,3.9c0.5,1.6,0.8,3.2,0.8,5c0,2.6-0.8,5-2.4,7.1
				c-1.6,2.1-3.7,3.7-6.1,5S1380.1,799.6,1377,799.6z"/>
			<path class="st4" d="M1425.1,798.8l24.2-62.6h9.7l24,62.6h-10.3l-14.2-37.6c-0.3-0.5-0.5-1.3-1.1-3.2c-0.5-1.8-1.1-3.4-1.8-5.3
				c-0.8-1.8-1.3-3.7-1.8-5.5c-0.5-1.6-0.8-2.6-1.1-3.2h2.1c-0.3,1.1-0.8,2.4-1.3,3.9s-1.1,3.2-1.6,5c-0.5,1.8-1.1,3.4-1.6,5
				c-0.5,1.6-1.1,2.9-1.3,3.7l-14.2,37.4h-9.7V798.8z M1435.7,783.3l3.7-9.2h28.4l4.2,9.2H1435.7z"/>
			<path class="st4" d="M1507.5,799.6c-3.9,0-7.4-0.8-10.5-2.1c-3.2-1.3-5.8-3.4-7.9-6.1l6.3-5.3c1.8,2.1,3.7,3.7,5.8,4.5
				c2.1,1.1,4.5,1.3,7.1,1.3c1.1,0,2.1-0.3,2.9-0.5c1.1-0.3,1.8-0.8,2.4-1.3c0.8-0.5,1.3-1.1,1.6-1.8c0.3-0.8,0.5-1.6,0.5-2.4
				c0-1.6-0.5-2.9-1.6-3.7c-0.5-0.5-1.6-0.8-2.9-1.3s-2.9-1.1-5-1.6c-3.4-0.8-6.3-1.8-8.4-3.2c-2.1-1.1-3.9-2.4-5-3.9
				c-0.8-1.1-1.6-2.4-1.8-3.7c-0.5-1.3-0.5-2.9-0.5-4.5c0-1.8,0.5-3.7,1.3-5.5c0.8-1.6,2.1-3.2,3.7-4.2c1.6-1.3,3.4-2.1,5.3-2.9
				c2.1-0.5,4.2-1.1,6.6-1.1c2.1,0,4.5,0.3,6.6,0.8s4.2,1.6,6.1,2.6c1.8,1.1,3.4,2.4,4.7,3.9l-5.3,5.8c-1.1-1.1-2.4-2.1-3.7-2.9
				c-1.3-0.8-2.6-1.6-3.9-2.1c-1.3-0.5-2.6-0.8-3.7-0.8c-1.3,0-2.4,0-3.4,0.3c-1.1,0.3-1.8,0.5-2.6,1.1c-0.8,0.5-1.3,1.1-1.6,1.8
				s-0.5,1.6-0.5,2.4c0,0.8,0.3,1.6,0.5,2.1c0.3,0.8,0.8,1.3,1.3,1.8s1.6,1.1,2.9,1.6c1.3,0.5,2.9,1.1,5,1.6
				c2.9,0.8,5.5,1.6,7.4,2.6c1.8,1.1,3.4,2.1,4.7,3.2c1.3,1.1,2.1,2.4,2.6,3.9c0.5,1.6,0.8,3.2,0.8,5c0,2.6-0.8,5-2.4,7.1
				c-1.6,2.1-3.7,3.7-6.1,5S1510.7,799.6,1507.5,799.6z"/>
			<path class="st4" d="M1550.4,799.6c-3.9,0-7.4-0.8-10.5-2.1c-3.2-1.3-5.8-3.4-7.9-6.1l6.3-5.3c1.8,2.1,3.7,3.7,5.8,4.5
				c2.1,1.1,4.5,1.3,7.1,1.3c1.1,0,2.1-0.3,2.9-0.5c1.1-0.3,1.8-0.8,2.4-1.3c0.8-0.5,1.3-1.1,1.6-1.8c0.3-0.8,0.5-1.6,0.5-2.4
				c0-1.6-0.5-2.9-1.6-3.7c-0.5-0.5-1.6-0.8-2.9-1.3c-1.3-0.5-2.9-1.1-5-1.6c-3.4-0.8-6.3-1.8-8.4-3.2c-2.1-1.1-3.9-2.4-5-3.9
				c-0.8-1.1-1.6-2.4-1.8-3.7c-0.5-1.3-0.5-2.9-0.5-4.5c0-1.8,0.5-3.7,1.3-5.5c0.8-1.6,2.1-3.2,3.7-4.2c1.6-1.3,3.4-2.1,5.3-2.9
				c2.1-0.5,4.2-1.1,6.6-1.1c2.1,0,4.5,0.3,6.6,0.8s4.2,1.6,6.1,2.6c1.8,1.1,3.4,2.4,4.7,3.9l-5.3,5.8c-1.1-1.1-2.4-2.1-3.7-2.9
				c-1.3-0.8-2.6-1.6-3.9-2.1c-1.3-0.5-2.6-0.8-3.7-0.8c-1.3,0-2.4,0-3.4,0.3s-1.8,0.5-2.6,1.1c-0.8,0.5-1.3,1.1-1.6,1.8
				s-0.5,1.6-0.5,2.4c0,0.8,0.3,1.6,0.5,2.1c0.3,0.8,0.8,1.3,1.3,1.8s1.6,1.1,2.9,1.6c1.3,0.5,2.9,1.1,5,1.6
				c2.9,0.8,5.5,1.6,7.4,2.6c1.8,1.1,3.4,2.1,4.7,3.2c1.3,1.1,2.1,2.4,2.6,3.9c0.5,1.6,0.8,3.2,0.8,5c0,2.6-0.8,5-2.4,7.1
				c-1.6,2.1-3.7,3.7-6.1,5S1553.6,799.6,1550.4,799.6z"/>
			<path class="st4" d="M1598.6,799.6c-4.5,0-8.7-1.1-12.4-3.2c-3.7-2.1-6.6-5-8.4-8.7c-2.1-3.7-3.2-7.9-3.2-12.6s1.1-8.9,3.2-12.6
				c2.1-3.7,5-6.6,8.4-8.7c3.7-2.1,7.6-3.2,12.4-3.2c4.5,0,8.7,1.1,12.1,3.2c3.7,2.1,6.6,5,8.4,8.7c1.8,3.7,3.2,7.9,3.2,12.6
				s-1.1,8.9-3.2,12.6c-2.1,3.7-5,6.6-8.4,8.7C1607.3,798.5,1603.3,799.6,1598.6,799.6z M1598.6,791.2c2.9,0,5.3-0.8,7.6-2.1
				c2.1-1.3,3.9-3.4,5.3-5.8c1.3-2.4,1.8-5.3,1.8-8.2c0-3.2-0.5-5.8-1.8-8.2c-1.3-2.4-2.9-4.2-5.3-5.8c-2.1-1.3-4.7-2.1-7.6-2.1
				s-5.3,0.8-7.6,2.1c-2.4,1.3-3.9,3.4-5.3,5.8c-1.3,2.4-1.8,5.3-1.8,8.2c0,3.2,0.5,5.8,1.8,8.2c1.3,2.4,2.9,4.2,5.3,5.8
				C1593.3,790.6,1596,791.2,1598.6,791.2z"/>
			<path class="st4" d="M1652.6,799.6c-4.5,0-8.2-1.1-11.6-3.2c-3.4-2.1-6.1-5-8.2-8.7c-2.1-3.7-2.9-7.9-2.9-12.4
				c0-4.5,1.1-8.7,2.9-12.4c2.1-3.7,4.7-6.6,8.2-8.7c3.4-2.1,7.4-3.2,11.6-3.2c4.2,0,7.9,0.8,11.3,2.6c3.4,1.6,6.1,3.9,7.9,6.8
				l-5,6.3c-1.1-1.3-2.1-2.6-3.7-3.7s-3.2-2.1-4.7-2.6c-1.6-0.5-3.2-1.1-4.7-1.1c-2.9,0-5.5,0.8-7.6,2.1c-2.1,1.3-3.9,3.4-5.3,5.8
				c-1.3,2.4-1.8,5.3-1.8,8.2c0,2.9,0.8,5.8,2.1,8.2c1.3,2.4,3.2,4.2,5.5,5.8c2.4,1.6,4.7,2.1,7.6,2.1c1.6,0,3.2-0.3,4.7-0.8
				c1.6-0.5,2.9-1.3,4.5-2.4c1.3-1.1,2.9-2.4,3.9-3.9l5,6.3c-1.8,2.6-4.7,5-8.2,6.6C1659.9,798.8,1656.5,799.6,1652.6,799.6z"/>
			<path class="st4" d="M1686.5,741.4c-1.8,0-3.4-0.5-4.5-1.6c-1.1-1.1-1.6-2.4-1.6-4.2s0.5-3.2,1.6-4.2c1.1-1.1,2.6-1.6,4.5-1.6
				s3.4,0.5,4.5,1.6c1.1,1.1,1.6,2.4,1.6,4.2s-0.5,3.2-1.6,4.2C1689.9,740.9,1688.4,741.4,1686.5,741.4z M1682,798.8v-47.1h9.2v46.9
				h-9.2V798.8z"/>
			<path class="st4" d="M1723.4,799.6c-3.9,0-7.4-1.1-10.5-3.2c-3.2-2.1-5.8-5-7.6-8.7c-1.8-3.7-2.9-7.9-2.9-12.6s1.1-8.9,2.9-12.6
				c1.8-3.7,4.5-6.6,7.9-8.7c3.4-2.1,7.1-3.2,11.1-3.2c2.4,0,4.7,0.3,6.6,1.1c1.8,0.8,3.7,1.8,5.3,2.9c1.6,1.3,2.9,2.6,3.7,4.5
				c1.1,1.6,1.6,3.4,1.8,5.3l-2.1-0.8v-11.8h9.2v46.9h-9.2v-11.1l2.1-0.5c-0.3,1.6-1.1,3.2-2.1,4.7s-2.6,2.9-4.2,3.9
				c-1.6,1.3-3.7,2.1-5.5,2.9C1727.8,799.3,1725.7,799.6,1723.4,799.6z M1725.7,791.2c2.9,0,5.3-0.8,7.4-2.1c2.1-1.3,3.9-3.2,5-5.8
				c1.3-2.4,1.8-5.3,1.8-8.2c0-3.2-0.5-5.8-1.8-8.2c-1.3-2.4-2.9-4.2-5-5.5c-2.1-1.3-4.7-2.1-7.4-2.1s-5.3,0.8-7.4,2.1
				c-2.1,1.3-3.7,3.2-5,5.5c-1.3,2.4-1.8,5-1.8,8.2c0,3.2,0.5,5.8,1.8,8.2c1.3,2.4,2.9,4.2,5,5.8
				C1720.7,790.4,1723.1,791.2,1725.7,791.2z"/>
			<path class="st4" d="M1758.1,760.6v-8.9h30v8.9H1758.1z M1767.9,798.8v-59h9.2v59H1767.9z"/>
			<path class="st4" d="M1802.3,741.4c-1.8,0-3.4-0.5-4.5-1.6c-1.1-1.1-1.6-2.4-1.6-4.2s0.5-3.2,1.6-4.2s2.6-1.6,4.5-1.6
				c1.8,0,3.4,0.5,4.5,1.6c1.1,1.1,1.6,2.4,1.6,4.2s-0.5,3.2-1.6,4.2C1805.8,740.9,1804.2,741.4,1802.3,741.4z M1797.9,798.8v-47.1
				h9.2v46.9h-9.2V798.8z"/>
			<path class="st4" d="M1842.3,799.6c-4.5,0-8.7-1.1-12.4-3.2c-3.7-2.1-6.6-5-8.4-8.7c-2.1-3.7-3.2-7.9-3.2-12.6s1.1-8.9,3.2-12.6
				c2.1-3.7,5-6.6,8.4-8.7c3.7-2.1,7.6-3.2,12.4-3.2c4.5,0,8.7,1.1,12.1,3.2c3.7,2.1,6.6,5,8.4,8.7c1.8,3.7,3.2,7.9,3.2,12.6
				s-1.1,8.9-3.2,12.6c-2.1,3.7-5,6.6-8.4,8.7C1851,798.5,1846.8,799.6,1842.3,799.6z M1842.3,791.2c2.9,0,5.3-0.8,7.6-2.1
				c2.1-1.3,3.9-3.4,5.3-5.8c1.3-2.4,1.8-5.3,1.8-8.2c0-3.2-0.5-5.8-1.8-8.2c-1.3-2.4-2.9-4.2-5.3-5.8c-2.1-1.3-4.7-2.1-7.6-2.1
				c-2.9,0-5.3,0.8-7.6,2.1c-2.4,1.3-3.9,3.4-5.3,5.8c-1.3,2.4-1.8,5.3-1.8,8.2c0,3.2,0.5,5.8,1.8,8.2c1.3,2.4,2.9,4.2,5.3,5.8
				C1837.1,790.6,1839.5,791.2,1842.3,791.2z"/>
			<path class="st4" d="M1876.3,798.8v-47.1h9.2v9.7l-1.6,1.1c0.5-2.1,1.8-3.9,3.4-5.8c1.8-1.8,3.7-3.2,6.1-4.2s4.7-1.6,7.4-1.6
				c3.7,0,6.6,0.8,8.9,2.1c2.4,1.3,4.2,3.4,5.3,6.3c1.3,2.9,1.8,6.6,1.8,10.8v28.7h-9.2v-27.9c0-2.6-0.3-5-1.1-6.6
				c-0.8-1.8-1.8-3.2-3.4-3.9c-1.6-0.8-3.4-1.1-5.5-1.1c-1.8,0-3.4,0.3-5,0.8c-1.6,0.5-2.9,1.3-3.9,2.4s-1.8,2.1-2.6,3.4
				c-0.5,1.3-1.1,2.9-1.1,4.2v28.4h-4.5c-0.8,0-1.6,0-2.4,0C1877.4,798.5,1877.1,798.8,1876.3,798.8z"/>
		</g>
	</g>
</g>
</svg>
