<svg xmlns="http://www.w3.org/2000/svg" viewBox="0 0 2000 1001">
  <path fill="#d1d5db" opacity="0.35"
    d="M1197 73l16 27 39 15 18-1 11 10 19 1 3 8 20 11 32 4 3 6 18 3 3 10 23 4 14 20 17 7v13l-8 7 2 10 10 12 5-11 8 6 1 8-10 7 4 13 11 5 29-2 12 5 16 20 9 3 7-6 5 3 4 13 11 2 4-6-4-17 14-7 7-15 6 4-1 9 9 12 8 2 9-14 12-2 11-14 19 1 14 9 2 14 14 7 8 18 22 16 8 17 19 10-1 5-11 6-6-4-5 4 2 14-8 1-10-12-11-3-8-8-2 8-11 6-6-3-4-8-9 3-5-5-11 4-12-8-10 6-7-2-2 5-12 1-2-7-9-3-3 3 3 8-6 5-9-6-11 1-7-13-10-5-4-10-10 6-5-5-2 7-7-2-8 5-2 8-8 3-5 13 2 8-5 6-8-2-2 6-8-2-6-14-8-4-14 5-4 8-19 5-11 8-6 11 4 10-9 8-11 2-6-5-15 2-8 5-6 11 3 10-6 10-11 7-12 3-8 7-11-1-10 13-12 4-5 8-15 4-3 10-8 2-4 9-17 5-6 7-12 4-6 10-16 2-5 10-15 3-7 7-13 3-6 8-14 1-8 11-11 4-5 9-14 3-7 9-12 7-9 10-13 1-10 9-13 8-8 10-16 5-11 12-14 7-10 11-21 6-9 10-15 5-11 12-16 5-9 8-15 3-10 10-14 4-10 10-15 4-8 9-14 3-12 10-20 3-10 9-17 8-10 12-18 8-13 11-22 6-17 8-21 10-18 10-20 12-17 9-20 11-18 12-21 13-19 12-20 13-18 12-19 12-17 11-16 14-17 13-18 12-17 11-15 10-14 8-12 8-11 7-10 8-9 7-10 8-8 7-10 6-8 7-8 8-7 9-6 12-5 10-11 11-4 13-3z"/>
</svg>
